# xmcd
#
# Track frame offsets: 
#        150
#        27300
#        55285
#        75695
#        98252
#        119147
#        144835
#        163212
#        190175
#        210125
#        227572
#
# Disc length: 3466 seconds
#
# Revision: 1
# Processed by: cddbd v1.5.2PL0 Copyright (c) Steve Scherf et al.
# Submitted via: ExactAudioCopy v0.99pb4
#
DISCID=870d880b
DTITLE=Jean-Marc Staehle et Joève - Au coeur de la Rose
DYEAR=2000
DGENRE=Meditative
TTITLE0=Ouverture
TTITLE1=Paix du Coeur
TTITLE2=Au coeur de la Rose
TTITLE3=Trésor caché
TTITLE4=La Voix du Coeur
TTITLE5=Eveil à l'Amour
TTITLE6=Le parfum de l'Âme
TTITLE7=Jardin Secret
TTITLE8=L'Or du Coeur
TTITLE9=Le Chemin du Coeur
TTITLE10=Elévation
EXTD=YEAR: 2004
EXTT0=
EXTT1=
EXTT2=
EXTT3=
EXTT4=
EXTT5=
EXTT6=
EXTT7=
EXTT8=
EXTT9=
EXTT10=
PLAYORDER=
